<svg width="119" height="176" viewBox="0 0 119 176" fill="none" xmlns="http://www.w3.org/2000/svg">
<path fill-rule="evenodd" clip-rule="evenodd" d="M86.0884 111.473C77.9979 115.645 68.8182 118 59.0884 118C26.5036 118 0.0884399 91.5848 0.0884399 59C0.0884399 26.4152 26.5036 0 59.0884 0C91.6732 0 118.088 26.4152 118.088 59V119C118.088 120.301 117.933 121.566 117.64 122.778C114.617 152.651 88.4021 176 56.5096 176C30.3921 176 10.1567 162.959 0.630644 140.071C0.602663 140.024 0.588457 140 0.588457 140C-1.91149 133 3.67216 124 15.0885 124C22.5606 124 28.235 128.926 33.609 133.592C36.4457 136.055 39.1988 138.445 42.0884 140H42.0924C46.4034 142.539 51.5006 144 57.0886 144C73.0747 144 86.0398 131.957 86.0884 117.084V111.473ZM86.0884 59C86.0884 73.9117 74.0001 86 59.0884 86C44.1768 86 32.0884 73.9117 32.0884 59C32.0884 44.0883 44.1768 32 59.0884 32C74.0001 32 86.0884 44.0883 86.0884 59Z" fill="#121212"/>
</svg>
