<svg width="789" height="176" viewBox="0 0 789 176" fill="none" xmlns="http://www.w3.org/2000/svg">
<path fill-rule="evenodd" clip-rule="evenodd" d="M327.088 118C359.673 118 386.088 91.5848 386.088 59C386.088 26.4152 359.673 0 327.088 0C294.504 0 268.088 26.4152 268.088 59C268.088 91.5848 294.504 118 327.088 118ZM327.088 86C342 86 354.088 73.9117 354.088 59C354.088 44.0883 342 32 327.088 32C312.177 32 300.088 44.0883 300.088 59C300.088 73.9117 312.177 86 327.088 86Z" fill="#121212"/>
<path fill-rule="evenodd" clip-rule="evenodd" d="M461.088 118C493.673 118 520.088 91.5848 520.088 59C520.088 26.4152 493.673 0 461.088 0C428.504 0 402.088 26.4152 402.088 59C402.088 91.5848 428.504 118 461.088 118ZM461.088 86C476 86 488.088 73.9117 488.088 59C488.088 44.0883 476 32 461.088 32C446.177 32 434.088 44.0883 434.088 59C434.088 73.9117 446.177 86 461.088 86Z" fill="#121212"/>
<path fill-rule="evenodd" clip-rule="evenodd" d="M595.088 118C627.673 118 654.088 91.5848 654.088 59C654.088 26.4152 627.673 0 595.088 0C562.507 0 536.094 26.4098 536.088 58.9901C536.088 58.9934 536.088 58.9967 536.088 59V131C536.088 139.837 543.252 147 552.088 147C560.925 147 568.088 139.837 568.088 131V59C568.088 42.4315 581.52 29 598.088 29C614.657 29 628.088 42.4315 628.088 59C628.088 75.5685 614.657 89 598.088 89H595.088V89.0085C594.922 89.0028 594.756 89 594.588 89C586.58 89 580.088 95.4919 580.088 103.5C580.088 111.508 586.58 118 594.588 118C594.756 118 594.922 117.997 595.088 117.992V118Z" fill="#121212"/>
<path fill-rule="evenodd" clip-rule="evenodd" d="M729.088 176C760.976 176 786.955 150.703 788.052 119.083C788.076 118.725 788.088 118.364 788.088 118V117V45V16C788.088 7.16344 780.925 0 772.088 0C763.252 0 756.088 7.16344 756.088 16L756.088 45C756.088 59.9117 744 72 729.088 72C714.177 72 702.088 59.9117 702.088 45L702.088 16C702.088 7.16344 694.925 0 686.088 0C677.252 0 670.088 7.16344 670.088 16V45C670.088 77.5848 696.504 104 729.088 104C738.818 104 747.998 101.645 756.088 97.4734V117C756.088 131.912 744 144 729.088 144C714.177 144 702.088 131.912 702.088 117C702.088 108.163 694.925 101 686.088 101C677.252 101 670.088 108.163 670.088 117C670.088 149.585 696.504 176 729.088 176Z" fill="#121212"/>
<path fill-rule="evenodd" clip-rule="evenodd" d="M193.088 0C160.504 0 134.088 26.3029 134.088 58.7493L134.088 58.7493L134.088 130.443C134.088 139.28 141.252 146.443 150.088 146.443C158.925 146.443 166.088 139.28 166.088 130.443L166.088 58.7493L166.088 58.7493C166.088 43.901 178.177 31.8642 193.088 31.8642C208 31.8642 220.088 43.901 220.088 58.7493V59H220.212C221.196 66.8926 227.929 73 236.088 73C244.248 73 250.98 66.8926 251.965 59H252.088V58.7493C252.088 58.3655 252.085 57.9825 252.077 57.6004C252.085 57.4012 252.088 57.201 252.088 57C252.088 56.3551 252.05 55.7191 251.976 55.0941C250.081 24.3503 224.44 0 193.088 0Z" fill="#121212"/>
<path fill-rule="evenodd" clip-rule="evenodd" d="M86.0884 111.473C77.9979 115.645 68.8182 118 59.0884 118C26.5036 118 0.0884399 91.5848 0.0884399 59C0.0884399 26.4152 26.5036 0 59.0884 0C91.6732 0 118.088 26.4152 118.088 59V119C118.088 120.301 117.933 121.566 117.64 122.778C114.617 152.651 88.4021 176 56.5096 176C30.3921 176 10.1567 162.959 0.630644 140.071C0.602663 140.024 0.588457 140 0.588457 140C-1.91149 133 3.67216 124 15.0885 124C22.5606 124 28.235 128.926 33.609 133.592C36.4457 136.055 39.1988 138.445 42.0884 140H42.0924C46.4034 142.539 51.5006 144 57.0886 144C73.0747 144 86.0398 131.957 86.0884 117.084V111.473ZM86.0884 59C86.0884 73.9117 74.0001 86 59.0884 86C44.1768 86 32.0884 73.9117 32.0884 59C32.0884 44.0883 44.1768 32 59.0884 32C74.0001 32 86.0884 44.0883 86.0884 59Z" fill="#121212"/>
</svg>
