<svg width="655" height="176" viewBox="0 0 655 176" fill="none" xmlns="http://www.w3.org/2000/svg">
<path fill-rule="evenodd" clip-rule="evenodd" d="M193.088 118C225.673 118 252.088 91.5848 252.088 59C252.088 26.4152 225.673 0 193.088 0C160.504 0 134.088 26.4152 134.088 59C134.088 91.5848 160.504 118 193.088 118ZM193.088 86C208 86 220.088 73.9117 220.088 59C220.088 44.0883 208 32 193.088 32C178.177 32 166.088 44.0883 166.088 59C166.088 73.9117 178.177 86 193.088 86Z" fill="#121212"/>
<path fill-rule="evenodd" clip-rule="evenodd" d="M327.088 118C359.673 118 386.088 91.5848 386.088 59C386.088 26.4152 359.673 0 327.088 0C294.504 0 268.088 26.4152 268.088 59C268.088 91.5848 294.504 118 327.088 118ZM327.088 86C342 86 354.088 73.9117 354.088 59C354.088 44.0883 342 32 327.088 32C312.177 32 300.088 44.0883 300.088 59C300.088 73.9117 312.177 86 327.088 86Z" fill="#121212"/>
<path fill-rule="evenodd" clip-rule="evenodd" d="M461.088 118C493.673 118 520.088 91.5848 520.088 59C520.088 26.4152 493.673 0 461.088 0C428.507 0 402.094 26.4098 402.088 58.9901C402.088 58.9934 402.088 58.9967 402.088 59V131C402.088 139.837 409.252 147 418.088 147C426.925 147 434.088 139.837 434.088 131V59C434.088 42.4315 447.52 29 464.088 29C480.657 29 494.088 42.4315 494.088 59C494.088 75.5685 480.657 89 464.088 89H461.088V89.0085C460.922 89.0028 460.756 89 460.588 89C452.58 89 446.088 95.4919 446.088 103.5C446.088 111.508 452.58 118 460.588 118C460.756 118 460.922 117.997 461.088 117.992V118Z" fill="#121212"/>
<path fill-rule="evenodd" clip-rule="evenodd" d="M595.088 176C626.976 176 652.955 150.703 654.052 119.083C654.076 118.725 654.088 118.364 654.088 118V117V45V16C654.088 7.16344 646.925 0 638.088 0C629.252 0 622.088 7.16344 622.088 16L622.088 45C622.088 59.9117 610 72 595.088 72C580.177 72 568.088 59.9117 568.088 45L568.088 16C568.088 7.16344 560.925 0 552.088 0C543.252 0 536.088 7.16344 536.088 16V45C536.088 77.5848 562.504 104 595.088 104C604.818 104 613.998 101.645 622.088 97.4734V117C622.088 131.912 610 144 595.088 144C580.177 144 568.088 131.912 568.088 117C568.088 108.163 560.925 101 552.088 101C543.252 101 536.088 108.163 536.088 117C536.088 149.585 562.504 176 595.088 176Z" fill="#121212"/>
<path fill-rule="evenodd" clip-rule="evenodd" d="M59.0884 0C26.5036 0 0.0884411 26.3029 0.0883811 58.7493L0.0883789 58.7493L0.0883811 130.443C0.0883811 139.28 7.25183 146.443 16.0884 146.443C24.9249 146.443 32.0884 139.28 32.0884 130.443L32.0884 58.7493L32.0884 58.7493C32.0885 43.901 44.1768 31.8642 59.0884 31.8642C74 31.8642 86.0883 43.901 86.0884 58.7493V59H86.2122C87.1964 66.8926 93.9291 73 102.088 73C110.248 73 116.98 66.8926 117.965 59H118.088V58.7493C118.088 58.3655 118.085 57.9825 118.077 57.6004C118.085 57.4012 118.088 57.201 118.088 57C118.088 56.3551 118.05 55.7191 117.976 55.0941C116.081 24.3503 90.4403 0 59.0884 0Z" fill="#121212"/>
</svg>
